<svg xmlns="http://www.w3.org/2000/svg" xmlns:xlink="http://www.w3.org/1999/xlink" viewBox="0 0 544.74 719.01"><defs><style>.cls-1{fill:#fff8cb;opacity:0.17;}.cls-2{fill:url(#linear-gradient);}.cls-3{fill:url(#linear-gradient-2);}.cls-4{fill:url(#New_Gradient_Swatch_2);}.cls-5{fill:url(#New_Gradient_Swatch_2-2);}.cls-6{fill:url(#New_Gradient_Swatch_4);}.cls-7{fill:url(#New_Gradient_Swatch_4-2);}.cls-8{fill:url(#New_Gradient_Swatch_4-3);}.cls-9{fill:#040504;}.cls-10{fill:url(#New_Gradient_Swatch_4-4);}.cls-11{fill:url(#New_Gradient_Swatch_4-5);}.cls-12{fill:url(#New_Gradient_Swatch_2-3);}.cls-13,.cls-22{stroke:#231f20;}.cls-13,.cls-15,.cls-22{stroke-miterlimit:10;}.cls-13{stroke-width:0.06px;fill:url(#New_Gradient_Swatch_2-4);}.cls-14{fill:url(#New_Gradient_Swatch_2-5);}.cls-15,.cls-22{fill:none;}.cls-15{stroke:#3a3939;stroke-width:0.13px;}.cls-16{fill:url(#New_Gradient_Swatch_2-6);}.cls-17{fill:url(#linear-gradient-3);}.cls-18{fill:url(#New_Gradient_Swatch_7);}.cls-19{fill:url(#linear-gradient-4);}.cls-20{fill:url(#New_Gradient_Swatch_3);}.cls-21{fill:#322615;}.cls-22{stroke-width:0.18px;}.cls-23{font-size:9px;font-family:GillSans-Light, Gill Sans;letter-spacing:0.09em;}.cls-24{font-size:26.3px;font-family:GillSans, Gill Sans;letter-spacing:0em;}.cls-25{font-family:GillSans-Italic, Gill Sans;font-style:italic;letter-spacing:0.01em;}</style><linearGradient id="linear-gradient" x1="1528.37" y1="692.95" x2="1703.78" y2="877.83" gradientTransform="translate(-1503.17 818.09) rotate(-41.54)" gradientUnits="userSpaceOnUse"><stop offset="0" stop-color="#fff8cb" stop-opacity="0.17"/><stop offset="0.03" stop-color="#f9f3ca" stop-opacity="0.25"/><stop offset="0.14" stop-color="#e7e3c7" stop-opacity="0.48"/><stop offset="0.25" stop-color="#d8d7c5" stop-opacity="0.67"/><stop offset="0.36" stop-color="#cdcdc3" stop-opacity="0.81"/><stop offset="0.47" stop-color="#c5c6c2" stop-opacity="0.92"/><stop offset="0.59" stop-color="#c0c1c1" stop-opacity="0.98"/><stop offset="0.7" stop-color="#bec0c1"/><stop offset="0.78" stop-color="#babcbd"/><stop offset="0.87" stop-color="#afb1b2"/><stop offset="0.95" stop-color="#9d9f9f"/><stop offset="1" stop-color="#8c8e8d"/></linearGradient><linearGradient id="linear-gradient-2" x1="935.91" y1="1350.14" x2="1112.64" y2="1536.4" gradientTransform="translate(-1493.17 -108.91) rotate(-41.54)" xlink:href="#linear-gradient"/><linearGradient id="New_Gradient_Swatch_2" x1="588.53" y1="7.79" x2="561.37" y2="7.79" gradientTransform="translate(-293.71 53.02) rotate(-1.45)" gradientUnits="userSpaceOnUse"><stop offset="0" stop-color="#040504"/><stop offset="0.01" stop-color="#090a09"/><stop offset="0.05" stop-color="#2b2c2a"/><stop offset="0.08" stop-color="#383937"/><stop offset="0.08" stop-color="#30312f"/><stop offset="0.09" stop-color="#1f211e"/><stop offset="0.11" stop-color="#141513"/><stop offset="0.13" stop-color="#0d0f0c"/><stop offset="0.18" stop-color="#0b0d0a"/><stop offset="0.21" stop-color="#0b0d0a"/><stop offset="0.22" stop-color="#0b0d0a"/><stop offset="0.24" stop-color="#0d0f0c"/><stop offset="0.26" stop-color="#151714"/><stop offset="0.27" stop-color="#222321"/><stop offset="0.27" stop-color="#343533"/><stop offset="0.28" stop-color="#4c4d4b"/><stop offset="0.29" stop-color="#696a69"/><stop offset="0.29" stop-color="#8b8b8b"/><stop offset="0.3" stop-color="#9c9c9c"/><stop offset="0.32" stop-color="#9e9e9e"/><stop offset="0.33" stop-color="#a3a3a4"/><stop offset="0.43" stop-color="#878989"/><stop offset="0.45" stop-color="#727473"/><stop offset="0.49" stop-color="#3c3e3c"/><stop offset="0.52" stop-color="#0b0d0a"/><stop offset="0.6" stop-color="#555553"/><stop offset="0.68" stop-color="#bec0c1"/><stop offset="0.75" stop-color="#0b0d0a"/><stop offset="0.84" stop-color="#0b0d0a"/><stop offset="1" stop-color="#0b0d0a"/></linearGradient><linearGradient id="New_Gradient_Swatch_2-2" x1="559.43" y1="62.78" x2="592.15" y2="63.46" xlink:href="#New_Gradient_Swatch_2"/><linearGradient id="New_Gradient_Swatch_4" x1="559.51" y1="57.07" x2="568.56" y2="57.12" gradientTransform="translate(-285.98 52.1) rotate(-1.27)" gradientUnits="userSpaceOnUse"><stop offset="0" stop-color="#322615"/><stop offset="0.01" stop-color="#615644"/><stop offset="0.05" stop-color="#fffbe2"/><stop offset="0.18" stop-color="#fc6"/><stop offset="0.21" stop-color="#fc6"/><stop offset="0.23" stop-color="#f7c664"/><stop offset="0.25" stop-color="#ebbd61"/><stop offset="0.28" stop-color="#dcb15b"/><stop offset="0.32" stop-color="#b5914b"/><stop offset="0.39" stop-color="#765e31"/><stop offset="0.45" stop-color="#322615"/><stop offset="0.47" stop-color="#392b18"/><stop offset="0.5" stop-color="#4b3a1f"/><stop offset="0.53" stop-color="#69532b"/><stop offset="0.57" stop-color="#93743b"/><stop offset="0.6" stop-color="#c89f50"/><stop offset="0.64" stop-color="#fc6"/><stop offset="0.66" stop-color="#ffce6a"/><stop offset="0.68" stop-color="#ffd276"/><stop offset="0.71" stop-color="#ffda8a"/><stop offset="0.73" stop-color="#ffe4a6"/><stop offset="0.75" stop-color="#fff2ca"/><stop offset="0.76" stop-color="#fffbe2"/><stop offset="0.77" stop-color="#fff5d2"/><stop offset="0.79" stop-color="#ffe6ab"/><stop offset="0.82" stop-color="#ffdb8d"/><stop offset="0.84" stop-color="#ffd377"/><stop offset="0.86" stop-color="#ffce6a"/><stop offset="0.88" stop-color="#fc6"/></linearGradient><linearGradient id="New_Gradient_Swatch_4-2" x1="554.76" y1="21.33" x2="584.91" y2="21.33" gradientTransform="translate(-293.71 53.02) rotate(-1.45)" xlink:href="#New_Gradient_Swatch_4"/><linearGradient id="New_Gradient_Swatch_4-3" x1="555.15" y1="105.67" x2="586.95" y2="105.67" gradientTransform="translate(-293.71 53.02) rotate(-1.45)" xlink:href="#New_Gradient_Swatch_4"/><linearGradient id="New_Gradient_Swatch_4-4" x1="554.45" y1="112.88" x2="587.52" y2="112.88" gradientTransform="translate(-293.71 53.02) rotate(-1.45)" xlink:href="#New_Gradient_Swatch_4"/><linearGradient id="New_Gradient_Swatch_4-5" x1="555.15" y1="119.78" x2="586.95" y2="119.78" gradientTransform="translate(-293.71 53.02) rotate(-1.45)" xlink:href="#New_Gradient_Swatch_4"/><linearGradient id="New_Gradient_Swatch_2-3" x1="521.68" y1="1142.1" x2="551.48" y2="1142.1" gradientTransform="translate(-283.71 -873.98) rotate(-1.45)" xlink:href="#New_Gradient_Swatch_2"/><linearGradient id="New_Gradient_Swatch_2-4" x1="560.69" y1="168.5" x2="588.98" y2="169.02" xlink:href="#New_Gradient_Swatch_2"/><linearGradient id="New_Gradient_Swatch_2-5" x1="560.2" y1="125.82" x2="592" y2="125.82" xlink:href="#New_Gradient_Swatch_2"/><linearGradient id="New_Gradient_Swatch_2-6" x1="559.43" y1="234.83" x2="587.36" y2="234.83" xlink:href="#New_Gradient_Swatch_2"/><linearGradient id="linear-gradient-3" x1="275.82" y1="313.51" x2="296.4" y2="313.51" gradientUnits="userSpaceOnUse"><stop offset="0.06" stop-color="#fc6"/><stop offset="0.09" stop-color="#ffd47c"/><stop offset="0.26" stop-color="#fffbe2"/><stop offset="0.27" stop-color="#fffae0"/><stop offset="0.27" stop-color="#fff8d9"/><stop offset="0.27" stop-color="#fff3cd"/><stop offset="0.27" stop-color="#ffecbc"/><stop offset="0.28" stop-color="#ffe4a5"/><stop offset="0.28" stop-color="#ffda8a"/><stop offset="0.28" stop-color="#ffcd6a"/><stop offset="0.28" stop-color="#fc6"/><stop offset="0.38" stop-color="#f7c664"/><stop offset="0.47" stop-color="#ebbd61"/><stop offset="0.6" stop-color="#fac865"/><stop offset="0.64" stop-color="#fc6"/><stop offset="0.64" stop-color="#ffce6c"/><stop offset="0.66" stop-color="#ffda8b"/><stop offset="0.69" stop-color="#ffe4a7"/><stop offset="0.72" stop-color="#ffedbd"/><stop offset="0.75" stop-color="#fff3ce"/><stop offset="0.79" stop-color="#fff8d9"/><stop offset="0.84" stop-color="#fffae0"/><stop offset="1" stop-color="#fffbe2"/></linearGradient><linearGradient id="New_Gradient_Swatch_7" x1="562.58" y1="275.45" x2="577.78" y2="275.45" gradientTransform="matrix(1, -0.03, 0.03, 1, -293.79, 50.13)" gradientUnits="userSpaceOnUse"><stop offset="0.01" stop-color="#878989"/><stop offset="0.07" stop-color="#878989"/><stop offset="0.3" stop-color="#bec0c1"/><stop offset="0.39" stop-color="#bec0c1"/><stop offset="0.41" stop-color="#bec0c1"/><stop offset="0.45" stop-color="#c1c3c4"/><stop offset="0.48" stop-color="#cacbcc"/><stop offset="0.5" stop-color="#d9dada"/><stop offset="0.52" stop-color="#eeeeef"/><stop offset="0.53" stop-color="#fff"/><stop offset="0.54" stop-color="#f9f9f9"/><stop offset="0.56" stop-color="#e8e9e9"/><stop offset="0.58" stop-color="#cccece"/><stop offset="0.59" stop-color="#bec0c1"/><stop offset="0.62" stop-color="#b7b9ba"/><stop offset="0.65" stop-color="#a5a7a7"/><stop offset="0.69" stop-color="#8c8e8d"/><stop offset="0.85" stop-color="#878989"/><stop offset="1" stop-color="#898b8b"/></linearGradient><linearGradient id="linear-gradient-4" x1="565.75" y1="274.72" x2="575.26" y2="274.72" gradientTransform="matrix(1, -0.03, 0.03, 1, -293.79, 50.13)" gradientUnits="userSpaceOnUse"><stop offset="0" stop-color="#fc6"/><stop offset="0.02" stop-color="#fc6"/><stop offset="0.16" stop-color="#fc6"/><stop offset="0.23" stop-color="#f7c664"/><stop offset="0.28" stop-color="#ebbd61"/><stop offset="0.31" stop-color="#e7ba60"/><stop offset="0.33" stop-color="#dcb15b"/><stop offset="0.35" stop-color="#caa253"/><stop offset="0.37" stop-color="#b08d49"/><stop offset="0.4" stop-color="#8e713b"/><stop offset="0.42" stop-color="#65502a"/><stop offset="0.44" stop-color="#352916"/><stop offset="0.44" stop-color="#322615"/><stop offset="0.45" stop-color="#615239"/><stop offset="0.48" stop-color="#917f5d"/><stop offset="0.5" stop-color="#b8a57c"/><stop offset="0.52" stop-color="#d7c293"/><stop offset="0.54" stop-color="#edd7a4"/><stop offset="0.56" stop-color="#fae4af"/><stop offset="0.57" stop-color="#ffe8b2"/><stop offset="0.59" stop-color="#ffdf99"/><stop offset="0.63" stop-color="#fc6"/><stop offset="0.85" stop-color="#fc6"/><stop offset="0.85" stop-color="#fc6"/><stop offset="1" stop-color="#fc6"/></linearGradient><linearGradient id="New_Gradient_Swatch_3" x1="556.46" y1="249.41" x2="584.34" y2="249.41" gradientTransform="translate(-293.71 53.02) rotate(-1.45)" gradientUnits="userSpaceOnUse"><stop offset="0" stop-color="#040504"/><stop offset="0" stop-color="#090a09"/><stop offset="0.04" stop-color="#2b2c2a"/><stop offset="0.07" stop-color="#383937"/><stop offset="0.07" stop-color="#30312f"/><stop offset="0.09" stop-color="#1f211e"/><stop offset="0.12" stop-color="#141513"/><stop offset="0.16" stop-color="#0d0f0c"/><stop offset="0.26" stop-color="#0b0d0a"/><stop offset="0.5" stop-color="#0b0d0a"/><stop offset="0.54" stop-color="#0b0d0a"/><stop offset="0.74" stop-color="#0b0d0a"/><stop offset="0.77" stop-color="#0b0d0a"/><stop offset="0.94" stop-color="#555553"/><stop offset="1" stop-color="#0b0d0a"/></linearGradient></defs><title>Asset 10</title><g id="Layer_2" data-name="Layer 2"><g id="Artwork"><g id="montblanc_1" data-name="montblanc //1"><rect class="cls-1" width="544.74" height="719.01"/><path class="cls-2" d="M283,339.31c.07,0-.07-.11-.37-.23C282.75,339.26,282.88,339.34,283,339.31Z"/><path class="cls-3" d="M277,328.77c-6.77-2.25-10.32-2.73-20.57-8.31,2.86-1.25,4.86-2.21,4.5-2.24l-3.6-1.29c.08,0,.06.11,0,.21,0-.06,0-.11,0-.14a154.32,154.32,0,0,0-17.16-8.23s0,.07-.15.15a.33.33,0,0,1,.14-.21l-.64-.3a1.8,1.8,0,0,1-1-.06c-.24-.11-.24-.3,0-.45l-.64-.31a1.69,1.69,0,0,1-1,0c-.24-.11-.24-.3,0-.45l-.64-.31a1.69,1.69,0,0,1-1,0c-.25-.12-.25-.3,0-.45l-.65-.31a1.7,1.7,0,0,1-1-.05c-.24-.12-.24-.3,0-.45l-.82-.4h0c-20.5-9.69-39.28-19-55.37-27,.29-.61.14-1.13-.63-1.5l-2.93-1.4h0l-.23-.11-1.89-.91c.69.34-6.57,3.52-13.24,6.11,6.66-2.6,13.9-5.78,13.21-6.12l-1.88-.9h0c-1.31-1.06-2.51-1.78-3.38-1.62l-2.11-1-2.12-1c.07-.4-37.86-18.71-55-26.35a7.8,7.8,0,0,0-2.6-.81C80.92,231.63,62,239.5,84.11,250.52c-.17.49.62.86,1.63,1.22,18.61,10.3,50.73,27.35,52.54,27.35l2.12,1,2.11,1c-.61.4,1.2,1.1,3.38,1.62.4.2,6.59-2.11,12.55-4.49-5.95,2.39-12.13,4.7-12.52,4.5l1.89.91h0l1.85.89,3.62,1.73a8.52,8.52,0,0,0,4.37.28c17.28,9,35.45,17.93,54.69,26.62h0l1.17.56a1.7,1.7,0,0,1,1,.05c.24.12.24.3,0,.45l.64.31a1.69,1.69,0,0,1,1,.05c.25.12.25.3,0,.45l.64.31a1.77,1.77,0,0,1,1,.05c.25.12.25.3.05.46l.64.3a1.77,1.77,0,0,1,1,.05c.24.12.24.3,0,.46l.64.31a1.8,1.8,0,0,1,.51-.05,1.55,1.55,0,0,1-.49.11c4.93,2.8,10.38,5,17.64,8a.4.4,0,0,0,.17,0l2.5,1.61c0,.16,2.31-.66,5.32-1.85C259.42,330.75,255.7,330,262,335a91.94,91.94,0,0,1,20.6,4C281.47,337.94,278.52,332.82,277,328.77Z"/><path class="cls-4" d="M292.9,58.65c-1.52-33.7-27.34-33-27.16.06a87.33,87.33,0,0,1,27.16-.06"/><path class="cls-5" d="M265.15,61.83c-1.36,29.6-2.62,79.47-1.27,80.67,0,.14,31.8-.05,31.8-.18.65-.64-.57-56.46-2-80.59A86.21,86.21,0,0,0,265.15,61.83Z"/><path class="cls-6" d="M275.49,60.67l-.12,68.5c1.45,5.55,7.38,4.18,7.94-.18l-.4-68.32Q279.13,60.51,275.49,60.67Z"/><path class="cls-7" d="M292.9,58.65c.61.44.72,2.46.74,3.08a85.85,85.85,0,0,0-28.49.1c-.23-1.27-.26-2.42.59-3.12A87.43,87.43,0,0,1,292.9,58.65Z"/><path class="cls-8" d="M263.88,142.5l.08,3.1c0,1,31.81.76,31.8-.18l-.08-3.1C295.68,142.45,263.88,142.64,263.88,142.5Z"/><path class="cls-9" d="M264,145.6l.08,3.1c0,1.36,31.81,1.17,31.8-.18l-.08-3.1C295.77,146.37,264,146.56,264,145.6Z"/><path class="cls-10" d="M264,148.7c-1.05.26-.74,2.64.13,5,0,1.17,31.8,1,31.79-.18.59-2.65.76-4.65-.12-5C295.85,149.87,264.05,150.06,264,148.7Z"/><path class="cls-9" d="M296,156.22l-.07-2.78c0,1.17-31.78,1.42-31.79.25l.07,2.78C264.25,158.3,296.05,158.05,296,156.22Z"/><path class="cls-11" d="M296.11,159.37l-.07-3.1c0,1.81-31.79,2-31.8.19l.07,3.1C264.32,160.93,296.12,160.75,296.11,159.37Z"/><path class="cls-12" d="M294.68,259.63a.84.84,0,0,1,.64-.79l0-.94a.84.84,0,0,1-.68-.76.83.83,0,0,1,.64-.78l0-.94a.87.87,0,0,1-.68-.76.85.85,0,0,1,.65-.79l0-.94a.83.83,0,0,1-.68-.75.84.84,0,0,1,.64-.79l0-.94a.78.78,0,0,1,0-1.54l0-1.72c0,1.66-27.11,2.35-27.15.69l0,1.71a.79.79,0,0,1,0,1.55l0,.94a.84.84,0,0,1,.69.75.86.86,0,0,1-.65.79l0,.94a.86.86,0,0,1,.68.76.84.84,0,0,1-.64.78l0,.94a.79.79,0,0,1,0,1.55l0,.94a.82.82,0,0,1,.68.75.84.84,0,0,1-.64.79v.06l27.15-.69v-.06A.83.83,0,0,1,294.68,259.63Z"/><path class="cls-13" d="M266.46,165.76c-.44,27.13-.13,54.81,1.43,82.78,0,1.33,27.19.64,27.15-.68-1-30.19-1.22-58.57-1.43-82.79C294.37,169.17,268.43,170,266.46,165.76Z"/><path class="cls-14" d="M264.31,159.19l.13,5.29c.2,7.74,32,6.94,31.78-.8l-.11-4.64C296.11,160.89,264.31,161,264.31,159.19Z"/><line class="cls-15" x1="268.78" y1="260.62" x2="295.32" y2="258.78"/><line class="cls-15" x1="268.17" y1="259.47" x2="295.3" y2="257.96"/><line class="cls-15" x1="268.15" y1="258.64" x2="295.26" y2="256.3"/><line class="cls-15" x1="268.11" y1="256.99" x2="295.24" y2="255.47"/><line class="cls-15" x1="268.09" y1="256.16" x2="295.19" y2="253.82"/><line class="cls-15" x1="268.05" y1="254.5" x2="295.17" y2="252.99"/><line class="cls-15" x1="268.02" y1="253.68" x2="295.13" y2="251.33"/><line class="cls-15" x1="267.98" y1="252.02" x2="295.11" y2="250.51"/><line class="cls-15" x1="267.96" y1="251.19" x2="295.07" y2="248.9"/><path class="cls-16" d="M268.2,260.46c-.46,8,.38,15.23,1.3,25.15,0,1.7,26.53,1,26.48-.67a159.51,159.51,0,0,0-.63-25.16C295.36,260.48,268.21,261.17,268.2,260.46Z"/><path class="cls-17" d="M282.8,339.32c-.74,0,5.56-12.63,11.22-21.58-1.81-8.68-3.86-11.71-3-30,0,.73-14.68,1.1-14.7.37,1.69,21.64-.07,17.12-2.91,30.19,6.25,7.12,10.09,21,9.36,21.06"/><path class="cls-18" d="M277.17,288.05c1.7,10.32.63,24.56-1.41,29.83,1.48,1.25,6.91,15.57,7.63,15.55s5.4-15.32,7.56-15.93c-2.32-5.89-3.74-20.74-.76-29.78C290.21,288.18,277.18,288.25,277.17,288.05Z"/><path class="cls-19" d="M278.56,288a76.5,76.5,0,0,1-.71,30.13c3.16,4.09,5.1,11.51,5.5,13.81a35.36,35.36,0,0,1,5.52-14.09,50.62,50.62,0,0,1-.76-30.1c0,.73-9.54,1-9.55.25"/><path class="cls-20" d="M269.5,285.61c-.21,1.71-.39,3.27-.55,4.59-.64.93,28.53.19,27.85-.71l-.78-4.55C296.06,286.64,269.54,287.32,269.5,285.61Z"/><circle class="cls-21" cx="283.35" cy="317.64" r="1.84" transform="translate(-7.95 7.28) rotate(-1.45)"/><text></text><path class="cls-22" d="M265.6,149.82a1.18,1.18,0,0,1,.9.63,2.82,2.82,0,0,1,.38,1.44,2.46,2.46,0,0,1-.34,1.41,1.06,1.06,0,0,1-.91.56,1,1,0,0,1-.89-.57,2.75,2.75,0,0,1-.36-1.46,2.81,2.81,0,0,1,.34-1.47A.94.94,0,0,1,265.6,149.82Zm0,.54a.7.7,0,0,0-.65.4,2.35,2.35,0,0,0,0,2.15.75.75,0,0,0,.65.43.75.75,0,0,0,.65-.42,2,2,0,0,0,.25-1,2,2,0,0,0-.28-1.05A.84.84,0,0,0,265.62,150.36Z"/><path class="cls-22" d="M270.06,150.2l.32,0,.09,3.58h-.29c-.55-.92-1.09-1.88-1.64-2.86,0,1,0,1.91.07,2.86h-.32c0-1.25-.05-2.5-.08-3.75l.27,0c.55,1,1.1,2,1.65,2.93C270.11,152.07,270.08,151.14,270.06,150.2Z"/><path class="cls-22" d="M271.21,150.28l2,.13c0,.14,0,.29,0,.43l-.83,0,.09,3h-.34l-.09-3-.8-.05C271.21,150.58,271.21,150.43,271.21,150.28Z"/><path class="cls-22" d="M275.34,153.8h-.8c0-1.1-.05-2.21-.08-3.32l.62,0a.87.87,0,0,1,.47.13.7.7,0,0,1,.25.31.87.87,0,0,1,.1.44.69.69,0,0,1-.35.68.72.72,0,0,1,.42.3,1.11,1.11,0,0,1,.08,1,.76.76,0,0,1-.27.32A.74.74,0,0,1,275.34,153.8Zm-.24-2.87h-.29c0,.33,0,.66,0,1h.23a.43.43,0,0,0,.38-.13.56.56,0,0,0,.11-.37C275.54,151.1,275.39,150.94,275.1,150.93Zm.06,1.41h-.32l0,1h.33a.69.69,0,0,0,.37,0,.43.43,0,0,0,.16-.19.5.5,0,0,0,0-.27.5.5,0,0,0-.07-.27.37.37,0,0,0-.18-.19A.83.83,0,0,0,275.16,152.34Z"/><path class="cls-22" d="M277.4,150.58h.34l0,2.79h1.06c0,.14,0,.28,0,.41h-1.4C277.43,152.73,277.41,151.65,277.4,150.58Z"/><path class="cls-22" d="M280.49,150.57h.24c.36,1.07.71,2.14,1.06,3.21h-.35c-.1-.32-.21-.64-.31-.95h-1c-.1.32-.19.64-.29.95h-.35C279.81,152.72,280.15,151.65,280.49,150.57Zm.5,1.86-.38-1.16-.36,1.17Z"/><path class="cls-22" d="M284.92,150.43l.32,0c0,1.12,0,2.24-.05,3.35h-.29c-.51-.86-1-1.69-1.55-2.51,0,.84,0,1.68,0,2.52H283l0-3.26h.28c.52.82,1,1.66,1.56,2.51C284.89,152.16,284.91,151.29,284.92,150.43Z"/><path class="cls-22" d="M288.69,152.91c0,.19,0,.37,0,.56a1.34,1.34,0,0,1-.86.32,1,1,0,0,1-.66-.23,1.56,1.56,0,0,1-.42-.64,2.43,2.43,0,0,1,.24-2.16,1.22,1.22,0,0,1,.91-.59,1.45,1.45,0,0,1,.82.23c0,.19,0,.37,0,.55a1.13,1.13,0,0,0-.8-.3.88.88,0,0,0-.68.43,1.72,1.72,0,0,0-.28.95,1.55,1.55,0,0,0,.25.94.74.74,0,0,0,.66.35A1.2,1.2,0,0,0,288.69,152.91Z"/><path class="cls-22" d="M290.58,150.78h0s0,0,.06.05l.29-.46c.06-.09.11-.15.16-.15s0,0,.07.05a.25.25,0,0,1,0,.13.24.24,0,0,1-.13.25l0,0-.37.24V151a.13.13,0,0,1,0,.06l.39.21.07.05a.22.22,0,0,1,.05.08.2.2,0,0,1,0,.1.35.35,0,0,1,0,.13.09.09,0,0,1-.08.06c-.06,0-.12,0-.19-.17l-.25-.38s-.05.06-.07.06l.06.56a1.66,1.66,0,0,1,0,.24q0,.24-.12.24c-.08,0-.12-.08-.12-.25a.68.68,0,0,1,0-.14l.09-.65s0,0-.06-.05l-.28.41c-.08.12-.15.18-.19.18s-.05,0-.08,0a.28.28,0,0,1,0-.13.37.37,0,0,1,.21-.29l.34-.21V151a.13.13,0,0,1,0-.06l-.39-.2a.22.22,0,0,1-.14-.22.32.32,0,0,1,0-.14s.05-.07.09-.07.06,0,.1.08l.05.05.28.41a.13.13,0,0,1,.07-.06l-.06-.54a.43.43,0,0,0,0-.11V150c0-.17,0-.25.12-.26s.11.06.11.21a1.85,1.85,0,0,1,0,.26C290.63,150.4,290.6,150.59,290.58,150.78Z"/><path class="cls-22" d="M294.3,149.71l.31,0c0,1.33,0,2.67,0,4h-.33c0-1,0-2.06,0-3.1-.23.53-.47,1-.71,1.56h-.06l-.72-1.49c0,1,0,2,0,3h-.33c0-1.29,0-2.58,0-3.88l.32,0,.76,1.57C293.8,150.82,294.05,150.27,294.3,149.71Z"/><text class="cls-23"><tspan x="78.71" y="426.71">In 1906, Hamburg banker, </tspan><tspan x="78.71" y="437.51">Alfred Nehemias, and a </tspan><tspan x="78.71" y="448.31">Berlin engineer, August </tspan><tspan x="78.71" y="459.11">Eberstein, together who </tspan><tspan x="78.71" y="469.91">recognized the signs of </tspan><tspan x="78.71" y="480.71">time and decided to </tspan><tspan x="78.71" y="491.51">produce simplicissimus </tspan><tspan x="78.71" y="502.31">pens. After a short period </tspan><tspan x="78.71" y="513.11">of time Wilhelm Dziambor, </tspan><tspan x="78.71" y="523.91">Christian Lausen and later </tspan><tspan x="78.71" y="534.71">Claus Johannes Voss took </tspan><tspan x="78.71" y="545.51">over the business and thus </tspan><tspan x="78.71" y="556.31">laid the foundation for the </tspan><tspan x="78.71" y="567.11">future internationally </tspan><tspan x="78.71" y="577.91">successful company Mont</tspan><tspan x="187.59" y="577.91">-</tspan><tspan x="78.71" y="588.71">blanc.</tspan><tspan x="216.72" y="426.03">In 1952, it was the year </tspan><tspan x="216.72" y="436.83">of the launch of the </tspan><tspan x="216.72" y="447.63">legendary “Meisterstück” </tspan><tspan x="216.72" y="458.43">and the beginning of its </tspan><tspan x="216.72" y="469.23">successful career as the </tspan><tspan x="216.72" y="480.03">world’s most celebrated </tspan><tspan x="216.72" y="490.83">writing instrument of all </tspan><tspan x="216.72" y="501.63">time. The &quot;Meisterstück </tspan><tspan x="216.72" y="512.43">149&quot; fountain pen soon </tspan><tspan x="216.72" y="523.23">became the ultimate </tspan><tspan x="216.72" y="534.03">symbol for writing culture </tspan><tspan x="216.72" y="544.83">and the style icon for </tspan><tspan x="216.72" y="555.63">perfect timeless design. </tspan><tspan x="216.72" y="566.43">“Simplo” described the </tspan><tspan x="216.72" y="577.23">new pen design, including </tspan><tspan x="216.72" y="588.03">a “build-in” ink-well. The </tspan><tspan x="216.72" y="598.83">Meisterstück 149 - a </tspan><tspan x="216.72" y="609.63">design that writes history. </tspan><tspan x="216.72" y="620.43">Deep black precious resin </tspan><tspan x="216.72" y="631.23">with gold-coated details, </tspan><tspan x="216.72" y="642.03">surmounted by the white </tspan><tspan x="216.72" y="652.83">star emblem and finished </tspan><tspan x="216.72" y="663.63">with a handcrafted Au750 </tspan><tspan x="216.72" y="674.43">gold nib, evolves into </tspan><tspan x="216.72" y="685.23">Montblanc’s design icon. </tspan><tspan x="354.74" y="426.03">It&apos;s not often that a pen </tspan><tspan x="354.74" y="436.83">finds itself at the very </tspan><tspan x="354.74" y="447.63">center of an international </tspan><tspan x="354.74" y="458.43">event, but that&apos;s exactly </tspan><tspan x="354.74" y="469.23">what happened 54 years </tspan><tspan x="354.74" y="480.03">ago when John F. Kennedy </tspan><tspan x="354.74" y="490.83">visited Cologne, West </tspan><tspan x="354.74" y="501.63">Germany. His host was </tspan><tspan x="354.74" y="512.43">Chancellor Konrad Adenau</tspan><tspan x="470.32" y="512.43">-</tspan><tspan x="354.74" y="523.23">er, who invited the young </tspan><tspan x="354.74" y="534.03">U.S. president to sign the </tspan><tspan x="354.74" y="544.83">Golden Book (Cologne&apos;s </tspan><tspan x="354.74" y="555.63">official guest book), then </tspan><tspan x="354.74" y="566.43">found he had no pen on </tspan><tspan x="354.74" y="577.23">him. The incident was a </tspan><tspan x="354.74" y="588.03">second away from being a </tspan><tspan x="354.74" y="598.83">national humiliation until </tspan><tspan x="354.74" y="609.63">J.F.K. came smoothly to the </tspan><tspan x="354.74" y="620.43">rescue. Without missing a </tspan><tspan x="354.74" y="631.23">beat, J.F.K. reached into his </tspan><tspan x="354.74" y="642.03">pocket and produced his </tspan><tspan x="354.74" y="652.83">own pen. It was a Mont</tspan><tspan x="456.49" y="652.83">-</tspan><tspan x="354.74" y="663.63">blanc Meisterstück No. 149, </tspan><tspan x="354.74" y="674.43">probably the most famous </tspan><tspan x="354.74" y="685.23">fountain pen in the world. </tspan></text><text class="cls-24" transform="translate(72.97 393.38)">MONTBLANC MEISTERSTUCK <tspan class="cls-25" x="360.29" y="0">149</tspan></text></g></g></g></svg>