<svg xmlns="http://www.w3.org/2000/svg" xmlns:xlink="http://www.w3.org/1999/xlink" viewBox="0 0 769.39 577.05"><defs><style>.cls-1{fill:url(#New_Gradient_Swatch_2);}.cls-2{fill:url(#New_Gradient_Swatch_2-2);}.cls-3{fill:url(#New_Gradient_Swatch_2-3);}.cls-4{fill:url(#New_Gradient_Swatch_4);}.cls-5{fill:url(#New_Gradient_Swatch_4-2);}.cls-6{fill:url(#New_Gradient_Swatch_4-3);}.cls-7{fill:#040504;}.cls-8{fill:url(#New_Gradient_Swatch_4-4);}.cls-9{fill:url(#New_Gradient_Swatch_4-5);}.cls-10,.cls-20{stroke:#231f20;}.cls-10,.cls-12,.cls-20{stroke-miterlimit:10;}.cls-10{stroke-width:0.11px;fill:url(#New_Gradient_Swatch_2-4);}.cls-11{fill:url(#New_Gradient_Swatch_2-5);}.cls-12,.cls-20{fill:none;}.cls-12{stroke:#3a3939;stroke-width:0.22px;}.cls-13{fill:url(#New_Gradient_Swatch_2-6);}.cls-14{fill:url(#New_Gradient_Swatch_2-7);}.cls-15{fill:url(#linear-gradient);}.cls-16{fill:url(#New_Gradient_Swatch_7);}.cls-17{fill:url(#linear-gradient-2);}.cls-18{fill:url(#New_Gradient_Swatch_3);}.cls-19{fill:#322615;}.cls-20{stroke-width:0.3px;}.cls-21{font-size:10.68px;font-family:GillSans, Gill Sans;letter-spacing:3.32em;}.cls-21,.cls-41{fill:#fff;}.cls-22,.cls-29,.cls-32,.cls-40{font-size:9.62px;}.cls-22,.cls-30{letter-spacing:0.08em;}.cls-23{letter-spacing:-0.03em;}.cls-24{letter-spacing:0.05em;}.cls-25,.cls-29{letter-spacing:0.05em;}.cls-26{letter-spacing:0.05em;}.cls-27{letter-spacing:0.07em;}.cls-28{letter-spacing:0.1em;}.cls-31{letter-spacing:-0.07em;}.cls-32,.cls-33{letter-spacing:0.07em;}.cls-34{letter-spacing:0.1em;}.cls-35{letter-spacing:-0.01em;}.cls-36{letter-spacing:-0.05em;}.cls-37{letter-spacing:0.05em;}.cls-38{letter-spacing:-0.03em;}.cls-39{letter-spacing:0.06em;}.cls-40{letter-spacing:0.07em;}.cls-41{font-size:27.82px;font-family:GillSans-SemiBold, Gill Sans;font-weight:700;letter-spacing:0.01em;}.cls-42{font-family:GillSans-SemiBoldItalic, Gill Sans;font-style:italic;}</style><linearGradient id="New_Gradient_Swatch_2" x1="120.68" y1="288.52" x2="910.28" y2="288.52" gradientUnits="userSpaceOnUse"><stop offset="0" stop-color="#040504"/><stop offset="0.01" stop-color="#090a09"/><stop offset="0.05" stop-color="#2b2c2a"/><stop offset="0.08" stop-color="#383937"/><stop offset="0.08" stop-color="#30312f"/><stop offset="0.09" stop-color="#1f211e"/><stop offset="0.11" stop-color="#141513"/><stop offset="0.13" stop-color="#0d0f0c"/><stop offset="0.18" stop-color="#0b0d0a"/><stop offset="0.21" stop-color="#0b0d0a"/><stop offset="0.22" stop-color="#0b0d0a"/><stop offset="0.24" stop-color="#0d0f0c"/><stop offset="0.26" stop-color="#151714"/><stop offset="0.27" stop-color="#222321"/><stop offset="0.27" stop-color="#343533"/><stop offset="0.28" stop-color="#4c4d4b"/><stop offset="0.29" stop-color="#696a69"/><stop offset="0.29" stop-color="#8b8b8b"/><stop offset="0.3" stop-color="#9c9c9c"/><stop offset="0.32" stop-color="#9e9e9e"/><stop offset="0.33" stop-color="#a3a3a4"/><stop offset="0.43" stop-color="#878989"/><stop offset="0.45" stop-color="#727473"/><stop offset="0.49" stop-color="#3c3e3c"/><stop offset="0.52" stop-color="#0b0d0a"/><stop offset="0.6" stop-color="#555553"/><stop offset="0.68" stop-color="#bec0c1"/><stop offset="0.75" stop-color="#0b0d0a"/><stop offset="0.84" stop-color="#0b0d0a"/><stop offset="1" stop-color="#0b0d0a"/></linearGradient><linearGradient id="New_Gradient_Swatch_2-2" x1="795.09" y1="-23.09" x2="749.47" y2="-23.09" gradientTransform="translate(-115.75 12.86) rotate(5.17)" xlink:href="#New_Gradient_Swatch_2"/><linearGradient id="New_Gradient_Swatch_2-3" x1="746.21" y1="69.27" x2="801.18" y2="70.41" gradientTransform="translate(-115.75 12.86) rotate(5.17)" xlink:href="#New_Gradient_Swatch_2"/><linearGradient id="New_Gradient_Swatch_4" x1="754.31" y1="60.1" x2="769.52" y2="60.18" gradientTransform="translate(-110.73 12.28) rotate(5.35)" gradientUnits="userSpaceOnUse"><stop offset="0" stop-color="#322615"/><stop offset="0.01" stop-color="#615644"/><stop offset="0.05" stop-color="#fffbe2"/><stop offset="0.18" stop-color="#fc6"/><stop offset="0.21" stop-color="#fc6"/><stop offset="0.23" stop-color="#f7c664"/><stop offset="0.25" stop-color="#ebbd61"/><stop offset="0.28" stop-color="#dcb15b"/><stop offset="0.32" stop-color="#b5914b"/><stop offset="0.39" stop-color="#765e31"/><stop offset="0.45" stop-color="#322615"/><stop offset="0.47" stop-color="#392b18"/><stop offset="0.5" stop-color="#4b3a1f"/><stop offset="0.53" stop-color="#69532b"/><stop offset="0.57" stop-color="#93743b"/><stop offset="0.6" stop-color="#c89f50"/><stop offset="0.64" stop-color="#fc6"/><stop offset="0.66" stop-color="#ffce6a"/><stop offset="0.68" stop-color="#ffd276"/><stop offset="0.71" stop-color="#ffda8a"/><stop offset="0.73" stop-color="#ffe4a6"/><stop offset="0.75" stop-color="#fff2ca"/><stop offset="0.76" stop-color="#fffbe2"/><stop offset="0.77" stop-color="#fff5d2"/><stop offset="0.79" stop-color="#ffe6ab"/><stop offset="0.82" stop-color="#ffdb8d"/><stop offset="0.84" stop-color="#ffd377"/><stop offset="0.86" stop-color="#ffce6a"/><stop offset="0.88" stop-color="#fc6"/></linearGradient><linearGradient id="New_Gradient_Swatch_4-2" x1="738.38" y1="-0.35" x2="789.01" y2="-0.35" gradientTransform="translate(-115.75 12.86) rotate(5.17)" xlink:href="#New_Gradient_Swatch_4"/><linearGradient id="New_Gradient_Swatch_4-3" x1="739.02" y1="141.32" x2="792.43" y2="141.32" gradientTransform="translate(-115.75 12.86) rotate(5.17)" xlink:href="#New_Gradient_Swatch_4"/><linearGradient id="New_Gradient_Swatch_4-4" x1="737.85" y1="153.44" x2="793.4" y2="153.44" gradientTransform="translate(-115.75 12.86) rotate(5.17)" xlink:href="#New_Gradient_Swatch_4"/><linearGradient id="New_Gradient_Swatch_4-5" x1="739.02" y1="165.03" x2="792.43" y2="165.03" gradientTransform="translate(-115.75 12.86) rotate(5.17)" xlink:href="#New_Gradient_Swatch_4"/><linearGradient id="New_Gradient_Swatch_2-4" x1="748.33" y1="246.86" x2="795.85" y2="247.74" gradientTransform="translate(-115.75 12.86) rotate(5.17)" xlink:href="#New_Gradient_Swatch_2"/><linearGradient id="New_Gradient_Swatch_2-5" x1="747.51" y1="175.17" x2="800.92" y2="175.17" gradientTransform="translate(-115.75 12.86) rotate(5.17)" xlink:href="#New_Gradient_Swatch_2"/><linearGradient id="New_Gradient_Swatch_2-6" x1="746.21" y1="358.3" x2="793.13" y2="358.3" gradientTransform="translate(-115.75 12.86) rotate(5.17)" xlink:href="#New_Gradient_Swatch_2"/><linearGradient id="New_Gradient_Swatch_2-7" x1="826.49" y1="1260.7" x2="876.56" y2="1260.7" gradientTransform="translate(-110.75 -925.14) rotate(5.17)" xlink:href="#New_Gradient_Swatch_2"/><linearGradient id="linear-gradient" x1="490.92" y1="461.49" x2="525.49" y2="461.49" gradientTransform="translate(160.21 -10.66) rotate(6.62)" gradientUnits="userSpaceOnUse"><stop offset="0.06" stop-color="#fc6"/><stop offset="0.09" stop-color="#ffd47c"/><stop offset="0.26" stop-color="#fffbe2"/><stop offset="0.27" stop-color="#fffae0"/><stop offset="0.27" stop-color="#fff8d9"/><stop offset="0.27" stop-color="#fff3cd"/><stop offset="0.27" stop-color="#ffecbc"/><stop offset="0.28" stop-color="#ffe4a5"/><stop offset="0.28" stop-color="#ffda8a"/><stop offset="0.28" stop-color="#ffcd6a"/><stop offset="0.28" stop-color="#fc6"/><stop offset="0.38" stop-color="#f7c664"/><stop offset="0.47" stop-color="#ebbd61"/><stop offset="0.6" stop-color="#fac865"/><stop offset="0.64" stop-color="#fc6"/><stop offset="0.64" stop-color="#ffce6c"/><stop offset="0.66" stop-color="#ffda8b"/><stop offset="0.69" stop-color="#ffe4a7"/><stop offset="0.72" stop-color="#ffedbd"/><stop offset="0.75" stop-color="#fff3ce"/><stop offset="0.79" stop-color="#fff8d9"/><stop offset="0.84" stop-color="#fffae0"/><stop offset="1" stop-color="#fffbe2"/></linearGradient><linearGradient id="New_Gradient_Swatch_7" x1="751.51" y1="425.75" x2="777.03" y2="425.75" gradientTransform="matrix(1, 0.09, -0.09, 0.99, -115.38, 8.75)" gradientUnits="userSpaceOnUse"><stop offset="0.01" stop-color="#878989"/><stop offset="0.07" stop-color="#878989"/><stop offset="0.3" stop-color="#bec0c1"/><stop offset="0.39" stop-color="#bec0c1"/><stop offset="0.41" stop-color="#bec0c1"/><stop offset="0.45" stop-color="#c1c3c4"/><stop offset="0.48" stop-color="#cacbcc"/><stop offset="0.5" stop-color="#d9dada"/><stop offset="0.52" stop-color="#eeeeef"/><stop offset="0.53" stop-color="#fff"/><stop offset="0.54" stop-color="#f9f9f9"/><stop offset="0.56" stop-color="#e8e9e9"/><stop offset="0.58" stop-color="#cccece"/><stop offset="0.59" stop-color="#bec0c1"/><stop offset="0.62" stop-color="#b7b9ba"/><stop offset="0.65" stop-color="#a5a7a7"/><stop offset="0.69" stop-color="#8c8e8d"/><stop offset="0.85" stop-color="#878989"/><stop offset="1" stop-color="#898b8b"/></linearGradient><linearGradient id="linear-gradient-2" x1="756.82" y1="424.51" x2="772.8" y2="424.51" gradientTransform="matrix(1, 0.09, -0.09, 0.99, -115.38, 8.75)" gradientUnits="userSpaceOnUse"><stop offset="0" stop-color="#fc6"/><stop offset="0.02" stop-color="#fc6"/><stop offset="0.16" stop-color="#fc6"/><stop offset="0.23" stop-color="#f7c664"/><stop offset="0.28" stop-color="#ebbd61"/><stop offset="0.31" stop-color="#e7ba60"/><stop offset="0.33" stop-color="#dcb15b"/><stop offset="0.35" stop-color="#caa253"/><stop offset="0.37" stop-color="#b08d49"/><stop offset="0.4" stop-color="#8e713b"/><stop offset="0.42" stop-color="#65502a"/><stop offset="0.44" stop-color="#352916"/><stop offset="0.44" stop-color="#322615"/><stop offset="0.45" stop-color="#615239"/><stop offset="0.48" stop-color="#917f5d"/><stop offset="0.5" stop-color="#b8a57c"/><stop offset="0.52" stop-color="#d7c293"/><stop offset="0.54" stop-color="#edd7a4"/><stop offset="0.56" stop-color="#fae4af"/><stop offset="0.57" stop-color="#ffe8b2"/><stop offset="0.59" stop-color="#ffdf99"/><stop offset="0.63" stop-color="#fc6"/><stop offset="0.85" stop-color="#fc6"/><stop offset="0.85" stop-color="#fc6"/><stop offset="1" stop-color="#fc6"/></linearGradient><linearGradient id="New_Gradient_Swatch_3" x1="741.23" y1="382.78" x2="788.06" y2="382.78" gradientTransform="translate(-115.75 12.86) rotate(5.17)" gradientUnits="userSpaceOnUse"><stop offset="0" stop-color="#040504"/><stop offset="0" stop-color="#090a09"/><stop offset="0.04" stop-color="#2b2c2a"/><stop offset="0.07" stop-color="#383937"/><stop offset="0.07" stop-color="#30312f"/><stop offset="0.09" stop-color="#1f211e"/><stop offset="0.12" stop-color="#141513"/><stop offset="0.16" stop-color="#0d0f0c"/><stop offset="0.26" stop-color="#0b0d0a"/><stop offset="0.5" stop-color="#0b0d0a"/><stop offset="0.54" stop-color="#0b0d0a"/><stop offset="0.74" stop-color="#0b0d0a"/><stop offset="0.77" stop-color="#0b0d0a"/><stop offset="0.94" stop-color="#555553"/><stop offset="1" stop-color="#0b0d0a"/></linearGradient></defs><title>Asset 11</title><g id="Layer_2" data-name="Layer 2"><g id="Artwork"><g id="Montblonc_2" data-name="Montblonc //2"><rect class="cls-1" width="769.39" height="577.05"/><path class="cls-2" d="M672.51,82.4c4-56.53-39.22-60.44-45.34-5.15a146.74,146.74,0,0,1,45.34,5.15"/><path class="cls-3" d="M625.59,82.34c-8,49.13-19.77,132.09-17.74,134.36,0,.23,53.07,6.08,53.1,5.86,1.2-.94,10-94.32,12.2-134.87A144.59,144.59,0,0,0,625.59,82.34Z"/><path class="cls-4" d="M643.08,82.41,629.6,196.68c1.34,9.55,11.5,8.41,13.29,1.25L655.45,83.85Q649.18,82.85,643.08,82.41Z"/><path class="cls-5" d="M672.51,82.4c.94.86.73,4.25.64,5.29a143.93,143.93,0,0,0-47.56-5.35c-.14-2.16,0-4.09,1.58-5.09A147,147,0,0,1,672.51,82.4Z"/><path class="cls-6" d="M607.85,216.7l-.47,5.19c-.17,1.58,52.92,7.43,53.1,5.85l.47-5.18C660.92,222.78,607.82,216.93,607.85,216.7Z"/><path class="cls-7" d="M607.38,221.89l-.47,5.19c-.25,2.26,52.85,8.11,53.1,5.85l.47-5.19C660.3,229.34,607.2,223.49,607.38,221.89Z"/><path class="cls-8" d="M606.91,227.08c-1.79.22-1.74,4.26-.75,8.3-.22,2,52.88,7.81,53.1,5.85,1.48-4.3,2.16-7.6.75-8.3C659.76,235.19,606.66,229.34,606.91,227.08Z"/><path class="cls-7" d="M658.84,245.82l.42-4.64c-.21,1.95-53.32-3.79-53.11-5.75l-.42,4.65C605.4,243.14,658.51,248.88,658.84,245.82Z"/><path class="cls-9" d="M658.36,251.1l.47-5.19c-.33,3-53.43-2.83-53.1-5.85l-.46,5.19C605,247.54,658.11,253.39,658.36,251.1Z"/><path class="cls-10" d="M607.64,256c-6,45.19-10.83,91.44-13.64,138.42-.2,2.21,45.23,6.32,45.43,4.11,4.22-50.56,9.32-98,13.65-138.42C653.56,267.1,610.11,263.5,607.64,256Z"/><path class="cls-11" d="M605.32,244.63l-.8,8.86c-1.17,12.95,52,17.77,53.19,4.81l.7-7.75C658.07,253.63,605,247.71,605.32,244.63Z"/><line class="cls-12" x1="593.13" y1="414.74" x2="637.78" y2="416.82"/><line class="cls-12" x1="592.35" y1="412.71" x2="637.91" y2="415.44"/><line class="cls-12" x1="592.47" y1="411.33" x2="638.16" y2="412.67"/><line class="cls-12" x1="592.72" y1="408.56" x2="638.28" y2="411.28"/><line class="cls-12" x1="592.85" y1="407.17" x2="638.53" y2="408.51"/><line class="cls-12" x1="593.1" y1="404.4" x2="638.66" y2="407.13"/><line class="cls-12" x1="593.22" y1="403.02" x2="638.91" y2="404.36"/><line class="cls-12" x1="593.47" y1="400.24" x2="639.03" y2="402.97"/><line class="cls-12" x1="593.6" y1="398.86" x2="639.28" y2="400.28"/><path class="cls-13" d="M592.19,414.37c-2.31,13.2-2.3,25.49-2.7,42.21-.26,2.86,44.07,6.87,44.33,4a268.76,268.76,0,0,0,3.81-42.11C637.52,419.67,592.09,415.56,592.19,414.37Z"/><path class="cls-14" d="M636.55,418.11a1.42,1.42,0,0,1,1.22-1.2l.14-1.56a1.32,1.32,0,0,1,.24-2.6l.14-1.55a1.32,1.32,0,0,1,.23-2.6l.14-1.56a1.32,1.32,0,0,1,.24-2.6l.14-1.55a1.43,1.43,0,0,1-1-1.4,1.41,1.41,0,0,1,1.23-1.2l.25-2.86c-.25,2.77-45.68-1.34-45.43-4.11l-.26,2.85a1.32,1.32,0,0,1-.23,2.6l-.14,1.56a1.32,1.32,0,0,1-.24,2.6l-.14,1.56a1.32,1.32,0,0,1-.24,2.6l-.14,1.55a1.32,1.32,0,0,1-.23,2.6l-.14,1.56a1.44,1.44,0,0,1,1,1.4,1.45,1.45,0,0,1-1.23,1.2v.08l45.44,4.11v-.08A1.42,1.42,0,0,1,636.55,418.11Z"/><path class="cls-15" d="M601.28,548.78c-1.23-.11,11.73-20,22.91-33.84-1.33-14.83-4.17-20.28.86-50.69-.11,1.21-24.71-1-24.6-2.23-1.37,36.44-3.44,28.56-10.7,49.81,9,13.1,12.76,37.06,11.53,36.95"/><path class="cls-16" d="M601.83,462.15c.84,17.55-3.72,41.1-8.14,49.5,2.23,2.37,8.51,27.31,9.72,27.42s12-24.51,15.7-25.12c-2.73-10.27-2.21-35.33,4.51-49.83C623.55,464.89,601.8,462.48,601.83,462.15Z"/><path class="cls-17" d="M604.14,462.36c.78,17.95-1.37,34.77-7,50.13,4.47,7.45,6.27,20.21,6.49,24.12.94-3.68,4.77-14.55,12-22.45a85.06,85.06,0,0,1,4.55-50.36c-.11,1.21-16.1-.24-16-1.44"/><path class="cls-18" d="M589.49,456.59c-.67,2.81-1.28,5.38-1.8,7.55-1.25,1.43,47.57,5.85,46.6,4.22l-.42-7.76C633.62,463.46,589.24,459.44,589.49,456.59Z"/><ellipse class="cls-19" cx="606.41" cy="512.71" rx="3.08" ry="3.09" transform="translate(41.13 1070.45) rotate(-84.83)"/><text></text><path class="cls-20" d="M609.23,229.38a2,2,0,0,1,1.39,1.26,4.51,4.51,0,0,1,.34,2.47,4.06,4.06,0,0,1-.85,2.25,1.71,1.71,0,0,1-1.63.7,1.79,1.79,0,0,1-1.35-1.19,4.68,4.68,0,0,1-.32-2.5,4.43,4.43,0,0,1,.85-2.34A1.52,1.52,0,0,1,609.23,229.38Zm-.07.89a1.12,1.12,0,0,0-1.16.48,3.28,3.28,0,0,0-.62,1.72,3.55,3.55,0,0,0,.23,1.85,1.37,1.37,0,0,0,1,.89,1.2,1.2,0,0,0,1.16-.54,3.1,3.1,0,0,0,.62-1.68,3.35,3.35,0,0,0-.25-1.81A1.4,1.4,0,0,0,609.16,230.27Z"/><path class="cls-20" d="M616.67,231l.54.11q-.33,3-.66,6.08l-.49-.06c-.7-1.7-1.41-3.44-2.1-5.2-.17,1.6-.35,3.21-.52,4.82l-.52-.08c.22-2.1.44-4.2.67-6.28l.45.09q1.05,2.69,2.12,5.27Z"/><path class="cls-20" d="M618.6,231.35c1.09.2,2.19.39,3.29.56,0,.25,0,.5-.08.75l-1.38-.22c-.19,1.72-.39,3.46-.58,5.19l-.57-.07c.19-1.75.39-3.48.58-5.21l-1.35-.23Z"/><path class="cls-20" d="M624.69,238.22l-1.33-.16q.33-2.91.68-5.81l1,.15a1.36,1.36,0,0,1,.75.29,1.31,1.31,0,0,1,.35.58,1.9,1.9,0,0,1,.05.8,1.33,1.33,0,0,1-.75,1.14,1.15,1.15,0,0,1,.63.6,1.94,1.94,0,0,1-.12,1.75,1.37,1.37,0,0,1-.52.52A1.32,1.32,0,0,1,624.69,238.22Zm.07-2.61-.53-.06c-.08.61-.15,1.22-.22,1.84l.55.06a1.26,1.26,0,0,0,.65,0,.78.78,0,0,0,.3-.3,1.1,1.1,0,0,0,.16-.47,1.14,1.14,0,0,0,0-.49.65.65,0,0,0-.26-.36A1.36,1.36,0,0,0,624.76,235.61Zm.25-2.48-.49-.06-.21,1.74.38.05a.81.81,0,0,0,.68-.17,1.14,1.14,0,0,0,.27-.63Q625.73,233.24,625,233.13Z"/><path class="cls-20" d="M628.94,232.88l.57.07-.63,5,1.77.18-.09.74-2.34-.23Z"/><path class="cls-20" d="M634.11,233.36l.4,0,1,5.9-.58,0-.3-1.74-1.68-.15-.72,1.64-.58-.05Q632.87,236.15,634.11,233.36Zm.38,3.39-.36-2.12-.87,2Z"/><path class="cls-20" d="M641.47,233.88l.54,0c-.28,2-.55,3.94-.82,5.89l-.49,0q-1-2.37-2-4.69c-.2,1.49-.41,3-.61,4.45l-.53,0q.39-2.88.8-5.78l.46,0q1,2.34,2,4.72C641.05,236.93,641.26,235.41,641.47,233.88Z"/><path class="cls-20" d="M647.2,238.9c-.05.32-.09.65-.13,1a2.24,2.24,0,0,1-1.5.39,1.55,1.55,0,0,1-1.06-.51,2.47,2.47,0,0,1-.57-1.17,4.37,4.37,0,0,1-.06-1.54,4.16,4.16,0,0,1,.92-2.17,2,2,0,0,1,1.63-.84,2.34,2.34,0,0,1,1.31.57c0,.32-.09.63-.13,1a1.82,1.82,0,0,0-1.26-.68,1.48,1.48,0,0,0-1.21.6,3.06,3.06,0,0,0-.67,1.61,2.76,2.76,0,0,0,.21,1.66,1.26,1.26,0,0,0,1,.73A2.1,2.1,0,0,0,647.2,238.9Z"/><path class="cls-20" d="M650.75,235.64h0s.06,0,.08.1l.58-.72c.12-.15.22-.22.29-.22s.09,0,.12.1a.35.35,0,0,1,0,.23.43.43,0,0,1-.26.4l-.07,0-.66.32V236s0,.07,0,.09l.59.44.11.11a.37.37,0,0,1,.07.14.56.56,0,0,1,0,.18.39.39,0,0,1-.08.2.17.17,0,0,1-.14.1c-.09,0-.19-.12-.29-.33l-.33-.71c0,.07-.09.1-.13.09v1a3.29,3.29,0,0,1,0,.41c0,.27-.12.4-.25.39s-.17-.16-.13-.45a1.57,1.57,0,0,1,0-.23c.1-.37.19-.73.29-1.09a.19.19,0,0,1-.1-.1l-.53.64c-.16.19-.28.28-.36.28a.17.17,0,0,1-.12-.1.52.52,0,0,1,0-.22.58.58,0,0,1,.4-.45l.61-.29V236l0-.1-.6-.42a.41.41,0,0,1-.2-.4.43.43,0,0,1,.09-.23.19.19,0,0,1,.15-.1s.1,0,.16.15l.07.1.39.77a.15.15,0,0,1,.12-.09c0-.31,0-.63,0-.94v-.2a1.34,1.34,0,0,1,0-.2c0-.28.12-.42.25-.41s.17.13.14.38a3.72,3.72,0,0,1-.09.43Z"/><path class="cls-20" d="M657.16,234.61l.51,0c-.24,2.24-.49,4.46-.75,6.68l-.56-.06c.2-1.72.39-3.44.59-5.17-.49.83-1,1.65-1.49,2.47h-.11l-.9-2.63c-.21,1.7-.41,3.39-.62,5.07l-.56-.06c.27-2.15.53-4.31.8-6.49l.52,0c.32.92.65,1.84,1,2.78C656.1,236.38,656.63,235.5,657.16,234.61Z"/><text class="cls-21" transform="translate(60.9 173.16)">	<tspan class="cls-22"><tspan x="0" y="11.54">In 1906</tspan><tspan class="cls-23" x="34.16" y="11.54">,</tspan><tspan x="36.03" y="11.54" xml:space="preserve"> Hamburg ban</tspan><tspan class="cls-24" x="99.8" y="11.54">k</tspan><tspan x="104.84" y="11.54">e</tspan><tspan class="cls-23" x="110.17" y="11.54">r,</tspan><tspan x="115.6" y="11.54" xml:space="preserve">   </tspan><tspan x="0" y="23.08">Alf</tspan><tspan class="cls-25" x="13.09" y="23.08">r</tspan><tspan x="17.43" y="23.08">ed Nehemias</tspan><tspan class="cls-23" x="76.39" y="23.08">,</tspan><tspan x="78.26" y="23.08" xml:space="preserve"> and a Berlin </tspan><tspan x="0" y="34.62">enginee</tspan><tspan class="cls-23" x="34.69" y="34.62">r, </tspan><tspan x="42.56" y="34.62">August Eberstein</tspan><tspan class="cls-23" x="120.26" y="34.62">,</tspan><tspan x="122.12" y="34.62"> </tspan><tspan x="0" y="46.16">together who </tspan><tspan class="cls-25" x="65.39" y="46.16">r</tspan><tspan x="69.73" y="46.16">ecognized the </tspan><tspan x="0" y="57.69">signs of time and decided to </tspan><tspan x="0" y="69.23">p</tspan><tspan class="cls-26" x="5.53" y="69.23">r</tspan><tspan x="9.82" y="69.23">oduce simplicissi</tspan><tspan class="cls-27" x="86.66" y="69.23">m</tspan><tspan x="94.7" y="69.23">us pens</tspan><tspan class="cls-23" x="128.85" y="69.23">.</tspan><tspan x="130.71" y="69.23"> </tspan><tspan x="0" y="80.77">After a sho</tspan><tspan class="cls-28" x="51.63" y="80.77">r</tspan><tspan x="56.35" y="80.77">t period of time </tspan><tspan x="0" y="92.31">Wilhelm Dziambo</tspan><tspan class="cls-23" x="81.62" y="92.31">r,</tspan><tspan x="87.06" y="92.31" xml:space="preserve"> Christian </tspan><tspan x="0" y="103.85">Lausen and later Claus </tspan></tspan><tspan class="cls-29"><tspan x="0" y="115.39">J</tspan><tspan class="cls-30" x="2.93" y="115.39">ohannes</tspan><tspan class="cls-31" x="40.12" y="115.39"> </tspan><tspan class="cls-23" x="42.07" y="115.39">V</tspan><tspan class="cls-30" x="47.64" y="115.39">oss took </tspan><tspan class="cls-27" x="90.6" y="115.39">o</tspan><tspan x="96.53" y="115.39">v</tspan><tspan class="cls-30" x="101.27" y="115.39">er the </tspan></tspan><tspan class="cls-22"><tspan x="0" y="126.93">business and thus laid the </tspan></tspan><tspan class="cls-32"><tspan x="0" y="138.47">f</tspan><tspan class="cls-30" x="3.03" y="138.47">oundation </tspan><tspan class="cls-27" x="52.27" y="138.47">f</tspan><tspan class="cls-30" x="55.3" y="138.47">or the futu</tspan><tspan class="cls-25" x="105.52" y="138.47">r</tspan><tspan class="cls-30" x="109.86" y="138.47">e </tspan></tspan><tspan class="cls-22"><tspan x="0" y="150.01">international</tspan><tspan class="cls-33" x="58.45" y="150.01">l</tspan><tspan x="61.19" y="150.01">y successful </tspan><tspan x="0" y="161.55">compa</tspan><tspan class="cls-25" x="29.45" y="161.55">n</tspan><tspan x="34.79" y="161.55">y Montblan</tspan><tspan class="cls-28" x="85.53" y="161.55">c</tspan><tspan class="cls-23" x="90.66" y="161.55">.</tspan><tspan x="158.65" y="10.81">In 1952</tspan><tspan class="cls-23" x="192.81" y="10.81">,</tspan><tspan x="194.68" y="10.81" xml:space="preserve"> it was the </tspan><tspan class="cls-25" x="246.67" y="10.81">y</tspan><tspan x="251.41" y="10.81">ear of </tspan><tspan x="158.65" y="22.35">the launch of the legenda</tspan><tspan class="cls-34" x="274.39" y="22.35">r</tspan><tspan x="279.21" y="22.35">y </tspan><tspan x="158.65" y="33.89">“Meisterstück” and the </tspan><tspan x="158.65" y="45.43">beginning of its successful </tspan><tspan x="158.65" y="56.97">ca</tspan><tspan class="cls-25" x="168.41" y="56.97">r</tspan><tspan x="172.74" y="56.97">eer as the </tspan><tspan class="cls-25" x="222.13" y="56.97">w</tspan><tspan x="229.57" y="56.97">orld</tspan><tspan class="cls-35" x="248.58" y="56.97">’</tspan><tspan x="250.64" y="56.97">s most </tspan><tspan x="158.65" y="68.5">celebrated writing instru</tspan><tspan x="272.47" y="68.5">-</tspan><tspan x="158.65" y="80.04">ment of all tim</tspan><tspan class="cls-28" x="226.26" y="80.04">e</tspan><tspan class="cls-23" x="231.78" y="80.04">.</tspan><tspan class="cls-36" x="233.65" y="80.04"> </tspan><tspan x="235.84" y="80.04">The &quot;Meis</tspan><tspan x="281.55" y="80.04">-</tspan><tspan x="158.65" y="91.58">terstück 149&quot; </tspan><tspan class="cls-33" x="224.06" y="91.58">f</tspan><tspan x="227.09" y="91.58">ountain pen </tspan><tspan x="158.65" y="103.12">soon became the ultimate </tspan><tspan x="158.65" y="114.66">symbol </tspan><tspan class="cls-33" x="193.92" y="114.66">f</tspan><tspan x="196.95" y="114.66">or writing cultu</tspan><tspan class="cls-37" x="269.13" y="114.66">r</tspan><tspan x="273.47" y="114.66">e </tspan><tspan x="158.65" y="126.2">and the style icon </tspan><tspan class="cls-33" x="243.73" y="126.2">f</tspan><tspan x="246.76" y="126.2">or </tspan><tspan x="158.65" y="137.74">per</tspan><tspan class="cls-33" x="174.03" y="137.74">f</tspan><tspan x="177.07" y="137.74">ect timeless design</tspan><tspan class="cls-38" x="263.8" y="137.74">.</tspan><tspan x="265.67" y="137.74"> </tspan><tspan x="158.65" y="149.28">“Simplo” described the n</tspan><tspan class="cls-39" x="273.4" y="149.28">e</tspan><tspan x="278.58" y="149.28">w </tspan><tspan x="158.65" y="160.82">pen design</tspan><tspan class="cls-23" x="206.98" y="160.82">,</tspan><tspan x="208.85" y="160.82" xml:space="preserve"> including a </tspan><tspan x="158.65" y="172.36">“build-in” ink-</tspan><tspan class="cls-25" x="223.73" y="172.36">w</tspan><tspan x="231.18" y="172.36">ell</tspan><tspan class="cls-23" x="242.17" y="172.36">.</tspan><tspan class="cls-36" x="244.03" y="172.36"> </tspan><tspan x="246.22" y="172.36">The </tspan><tspan x="158.65" y="183.9">Meisterstück 149 - a design </tspan><tspan x="158.65" y="195.43">that writes histo</tspan><tspan class="cls-34" x="235.03" y="195.43">r</tspan><tspan class="cls-35" x="239.85" y="195.43">y</tspan><tspan class="cls-38" x="244.01" y="195.43">.</tspan><tspan x="245.88" y="195.43" xml:space="preserve"> Deep </tspan><tspan x="158.65" y="206.97">black p</tspan><tspan class="cls-25" x="191.01" y="206.97">r</tspan><tspan x="195.35" y="206.97">ecious </tspan><tspan class="cls-25" x="227.81" y="206.97">r</tspan><tspan x="232.15" y="206.97">esin with </tspan></tspan><tspan class="cls-32"><tspan x="158.65" y="218.51">g</tspan><tspan class="cls-30" x="163.38" y="218.51">old-coated details</tspan><tspan class="cls-38" x="245.52" y="218.51">,</tspan><tspan class="cls-30" x="247.38" y="218.51"> </tspan></tspan><tspan class="cls-22"><tspan x="158.65" y="230.05">surmounted </tspan><tspan class="cls-33" x="216.61" y="230.05">b</tspan><tspan x="222.05" y="230.05">y the white </tspan><tspan x="158.65" y="241.59">star emblem and finished </tspan><tspan x="158.65" y="253.13">with a handcrafted</tspan><tspan class="cls-23" x="243.97" y="253.13"> </tspan><tspan x="246.4" y="253.13">Au750 </tspan></tspan><tspan class="cls-32"><tspan x="158.65" y="264.67">g</tspan><tspan class="cls-30" x="163.38" y="264.67">old ni</tspan><tspan class="cls-27" x="189.61" y="264.67">b</tspan><tspan class="cls-23" x="195.04" y="264.67">,</tspan><tspan class="cls-30" x="196.91" y="264.67"> </tspan><tspan class="cls-39" x="200.3" y="264.67">e</tspan><tspan class="cls-25" x="205.49" y="264.67">v</tspan><tspan class="cls-30" x="210.23" y="264.67">ol</tspan><tspan class="cls-25" x="219.08" y="264.67">v</tspan><tspan class="cls-30" x="223.82" y="264.67">es into Mont</tspan><tspan class="cls-30" x="282.37" y="264.67">-</tspan></tspan><tspan class="cls-22"><tspan x="158.65" y="276.21">blanc</tspan><tspan class="cls-35" x="182.29" y="276.21">’</tspan><tspan x="184.35" y="276.21">s design icon</tspan><tspan class="cls-23" x="243.43" y="276.21">.</tspan><tspan x="245.3" y="276.21"> </tspan></tspan><tspan class="cls-40"><tspan x="317.3" y="10.81">It&apos;s not often that a pen finds </tspan><tspan x="317.3" y="22.35">itself at the very center of an </tspan><tspan x="317.3" y="33.89">international event, but that&apos;s </tspan><tspan x="317.3" y="45.43">exactly what happened 54 </tspan><tspan x="317.3" y="56.97">years ago when John F. </tspan><tspan x="317.3" y="68.5">Kennedy visited Cologne, </tspan><tspan x="317.3" y="80.04">West Germany. His host was </tspan><tspan x="317.3" y="91.58">Chancellor Konrad Adenauer, </tspan><tspan x="317.3" y="103.12">who invited the young U.S. </tspan><tspan x="317.3" y="114.66">president to sign the Golden </tspan><tspan x="317.3" y="126.2">Book (Cologne&apos;s official guest </tspan><tspan x="317.3" y="137.74">book), then found he had no </tspan><tspan x="317.3" y="149.28">pen on him. The incident was </tspan><tspan x="317.3" y="160.82">a second away from being a </tspan><tspan x="317.3" y="172.36">national humiliation until </tspan><tspan x="317.3" y="183.9">J.F.K. came smoothly to the </tspan><tspan x="317.3" y="195.43">rescue. Without missing a </tspan><tspan x="317.3" y="206.97">beat, J.F.K. reached into his </tspan><tspan x="317.3" y="218.51">pocket and produced his own </tspan><tspan x="317.3" y="230.05">pen. It was a Montblanc </tspan><tspan x="317.3" y="241.59">Meisterstück No. 149, proba</tspan><tspan x="449.14" y="241.59">-</tspan><tspan x="317.3" y="253.13">bly the most famous fountain </tspan><tspan x="317.3" y="264.67">pen in the world. </tspan></tspan></text><text class="cls-41" transform="translate(60.89 133.81)">MONTBLANC MEISTERSTUCK <tspan class="cls-42" x="413.06" y="0">149</tspan></text></g></g></g></svg>